<svg width="188" height="101" viewBox="0 0 188 101" fill="none" xmlns="http://www.w3.org/2000/svg">
<path d="M186.247 0.630615L50.3027 0.640766C50.3053 0.640766 50.313 0.651779 50.313 0.651779C39.9979 0.651779 31.1364 6.8181 27.2816 15.611L0.447178 80.2527C0.374321 80.4221 0.332764 80.6033 0.332764 80.7964C0.332764 81.5706 0.970612 82.1974 1.7566 82.1974L63.1419 82.194C67.5041 82.194 69.4048 77.9928 66.0015 74.642L43.4563 53.5491C31.6082 41.9339 36.6894 15.0011 61.2954 15.0011H181.464C182.085 15.0011 182.62 14.6064 182.81 14.0559L187.565 2.56602C187.633 2.40426 187.667 2.22134 187.667 2.03242C187.667 1.25823 187.037 0.630615 186.247 0.630615Z" fill="white"/>
<path d="M172.703 33.5323L149.627 33.5568C148.07 33.5568 146.734 34.4962 146.175 35.842L120.319 98.3196C120.217 98.5127 120.158 98.738 120.158 98.9668C120.158 99.7392 120.795 100.366 121.576 100.366L130.192 100.369L130.188 100.361C140.649 100.361 149.676 94.0252 153.442 85.035C153.442 85.035 153.457 85.0451 153.471 85.0553L174.021 35.4516C174.084 35.2907 174.123 35.1161 174.123 34.9341C174.123 34.1565 173.486 33.5323 172.703 33.5323Z" fill="white"/>
<path d="M127.342 34.9341C127.342 34.1565 126.704 33.5323 125.919 33.5323H60.4906C56.945 33.5323 53.8381 37.8952 57.5947 41.3553L79.2123 61.4704C79.2123 61.4704 87.9671 69.5366 86.0893 81.0777C84.4334 91.2402 77.4988 97.4624 72.4827 99.7003L72.4692 99.7037C72.3489 99.7646 72.2693 99.8866 72.2693 100.017C72.2693 100.212 72.4251 100.369 72.6251 100.369L97.8404 100.373C99.4007 100.373 100.739 99.4342 101.295 98.0875L127.247 35.433C127.308 35.2738 127.342 35.1085 127.342 34.9341Z" fill="white"/>
</svg>
