<svg width="24" height="24" viewBox="0 0 24 24" fill="none" xmlns="http://www.w3.org/2000/svg">
    <g clip-path="url(#5j6lyukt6a)">
        <path fill-rule="evenodd" clip-rule="evenodd" d="M9.718 5.907c2.594 0 5.188-.005 7.782.006a.424.424 0 0 0 .47-.36c.31-.979.642-1.95.94-2.933a.894.894 0 0 1 .992-.722c.731.022 1.464 0 2.195.01.57.007.915.321.901.79a.793.793 0 0 1-.879.767c-.47.011-.942.02-1.41-.004-.34-.018-.488.107-.577.437-.944 3.477-1.904 6.949-2.854 10.423-.105.388-.188.775-.292 1.163-.163.605-.375.764-1 .764H4.22c-.672 0-.896-.178-1.063-.833-.695-2.73-1.388-5.462-2.08-8.193-.238-.94.052-1.314 1.012-1.318h7.628l.001.003zm5.86 8.75.698-2.77h-3.403l-.193 2.77h2.898zm-4.467-.01.188-2.763H8.166l.204 2.763h2.74zm5.588-4.377.506-2.051h-4.072l-.135 2.051h3.701zM7.904 8.192c.053.73.103 1.395.155 2.073h3.363l.146-2.073H7.904zM6.59 11.869H3.847l.75 2.775h2.195l-.202-2.775zM2.955 8.21l.514 2.062h3.027L6.332 8.21H2.955zm5.702 11.363a2.538 2.538 0 1 1-2.547-2.55 2.552 2.552 0 0 1 2.547 2.55zm-1.58 0a.963.963 0 0 0-.94-.977.975.975 0 0 0-.972.947.957.957 0 1 0 1.912.03zm6.114-2.546a2.536 2.536 0 1 1-2.6 2.457 2.558 2.558 0 0 1 2.6-2.46v.003zm.902 2.543a.999.999 0 0 0-.956-.977 1.026 1.026 0 0 0-.987.956.972.972 0 0 0 1.944.02h-.001z" fill="#fff"/>
    </g>
    <defs>
        <clipPath id="5j6lyukt6a">
            <path fill="#fff" transform="translate(1 1)" d="M0 0h22v22H0z"/>
        </clipPath>
    </defs>
</svg>
